<svg xmlns="http://www.w3.org/2000/svg" version="1.1" xmlns:xlink="http://www.w3.org/1999/xlink" xmlns:svgjs="http://svgjs.dev/svgjs" width="1500" height="431" viewBox="0 0 1500 431"><g transform="matrix(1,0,0,1,-0.9084522071641459,-0.2535442200967566)"><svg viewBox="0 0 396 114" data-background-color="#ffffff" preserveAspectRatio="xMidYMid meet" height="431" width="1500" xmlns="http://www.w3.org/2000/svg" xmlns:xlink="http://www.w3.org/1999/xlink"><g id="tight-bounds" transform="matrix(1,0,0,1,0.24008861730862918,0.06727204885157789)"><svg viewBox="0 0 395.52 113.86556363636362" height="113.86556363636362" width="395.52"><g><svg viewBox="0 0 395.52 113.86556363636362" height="113.86556363636362" width="395.52"><g><svg viewBox="0 0 395.52 113.86556363636362" height="113.86556363636362" width="395.52"><g id="textblocktransform"><svg viewBox="0 0 395.52 113.86556363636362" height="113.86556363636362" width="395.52" id="textblock"><g><svg viewBox="0 0 395.52 113.86556363636362" height="113.86556363636362" width="395.52"><path d="M394.594 24.422C392.735 12.603 387.435 9.317 387.435 9.317 371.165-2.857 350.86-0.233 332.619 1.516 300.414 1.587 268.339 4.188 236.208 5.582 168.767 5.795 100.749 2.296 33.643 10.924 27.339 13.572-6.54 11.444 1.121 25.935 3.129 31.963 10.456 38.652 10.232 44.184 11.236 45.153 12.631 42.931 13.226 44.326 15.309 48.084 18.711 46.311 21.501 48.533 17.614 54.466 20.403 59.407 23.062 64.584 18.377 65.931 12.371 65.293 9.675 69.76 9.396 72.999 7.89 72.384 6.235 72.242 5.026 72.148 2.59 72.503 2.999 73.519 4.394 76.994-1.594 79.003 2.162 82.407-0.422 86.095 3.948 89.286 3.353 93.281 3.278 94.084 3.687 94.77 4.338 94.959 7.22 95.975 3.018 97.961 3.464 100.112 33.029 114.815 65.104 104.651 95.394 111.411 103.259 106.684 97.346 113.09 100.489 112.097 102.943 110.939 104.728 115.737 107.499 113.019 107.927 112.239 107.276 110.395 108.8 110.749 109.6 110.939 110.307 110.891 110.418 109.804 110.586 108.173 109.117 109.189 108.726 108.338 112.947 104.036 111.906 114.272 115.866 113.846 115.68 112.593 114.528 110.797 116.889 111.033 119.232 109.237 119.306 107.747 121.389 111.79 121.463 112.664 121.835 113.279 122.43 113.704 128.938 109.308 135.409 115.264 142.233 113.279 146.417 111.104 150.433 114.461 154.672 113.633 156.16 112.971 157.666 111.79 159.098 113.775 176.632 114.201 195.319 112.428 211.943 113.846 256.364 111.199 303.836 114.933 350.674 111.435 361.719 110.088 373.192 108.173 383.958 106.636 383.958 106.636 392.679 102.429 392.679 83.518S394.538 66.971 394.817 51.913C395.096 36.856 396.398 36.241 394.538 24.422Z" opacity="1" fill="#8789fe" data-fill-palette-color="tertiary"></path><g transform="matrix(1,0,0,1,55.76832,26.230666666666668)"><svg width="283.98335999999995" viewBox="2.7 -32.25 158.39000000000001 34.25" height="61.40423030303029" data-palette-color="#ffffff"><path d="M28.5 2Q24.15-4.75 20.03-10.88 15.9-17 13.25-20.78 10.6-24.55 9.9-25.55L9.9-25.55 9.65-25.55 9.4-4.2Q9.4-3.1 9.75-2.65 10.1-2.2 10.95-2.2L10.95-2.2 13.5-2.25 13.6-2.05 13.15 0.2Q12.6 0.15 10.9 0.08 9.2 0 7.85 0L7.85 0Q6.6 0 5.13 0.18 3.65 0.35 3.2 0.4L3.2 0.4 3.45-1.9Q5-2.1 5.75-2.83 6.5-3.55 6.55-5.05L6.55-5.05 7.2-26.9Q7.2-28.45 6.28-29.1 5.35-29.75 2.85-30L2.85-30 2.7-30.25 3.1-32.1Q3.55-32.05 5.05-31.95 6.55-31.85 7.4-31.85L7.4-31.85Q8.45-31.85 9.45-31.93 10.45-32 10.75-32.05L10.75-32.05Q14.45-26.3 18.18-20.8 21.9-15.3 24.4-11.75 26.9-8.2 27.55-7.25L27.55-7.25 27.8-7.25 27.8-27.5Q27.8-29.65 26.15-29.65L26.15-29.65 24.25-29.6 24.15-29.8 24.6-32.05Q25.1-32 26.5-31.93 27.9-31.85 29.35-31.85L29.35-31.85Q30.65-31.85 32.23-32.02 33.8-32.2 34.3-32.25L34.3-32.25 34.05-29.95Q32.3-29.7 31.5-28.98 30.7-28.25 30.65-26.8L30.65-26.8 29.95 1.3 28.5 2ZM38.6 0.45L38.85-1.6Q40.75-1.95 41.4-2.63 42.05-3.3 42.05-4.95L42.05-4.95 42.1-20.85Q42.1-22.1 41.8-22.53 41.5-22.95 40.6-22.95L40.6-22.95 38.95-22.9 38.85-23.1 39.1-25Q39.4-25 40.72-24.95 42.05-24.9 44.2-24.9L44.2-24.9Q45.35-24.9 47.02-25.05 48.7-25.2 49.2-25.25L49.2-25.25 49-23.2Q47.35-23 46.8-22.58 46.25-22.15 46.15-21L46.15-21Q45.95-17 45.77-12.15 45.6-7.3 45.6-4.65L45.6-4.65Q45.6-3.05 45.95-2.5 46.3-1.95 47.35-1.95L47.35-1.95Q48.05-1.95 48.62-2 49.2-2.05 49.4-2.1L49.4-2.1 49.5-1.9 49.15 0.1Q48.55 0.1 46.9 0.05 45.25 0 43.6 0L43.6 0Q42.25 0 40.67 0.18 39.1 0.35 38.6 0.45L38.6 0.45ZM73.45 0.6Q72.35 0.6 71.2-0.38 70.05-1.35 69.1-3.05L69.1-3.05 64.9-10.4 61.65-10.4 61.55-5.05Q61.55-3.6 61.75-2.98 61.95-2.35 62.52-2.15 63.1-1.95 64.5-1.9L64.5-1.9 64.6-1.75 64.2 0.15Q63.6 0.1 62.02 0.08 60.45 0.05 58.85 0.05L58.85 0.05Q57.3 0.05 56.15 0.1 55 0.15 54.6 0.2L54.6 0.2 54.95-1.85Q56.8-2.1 57.4-2.7 58-3.3 58-4.95L58-4.95 58.05-20.9Q58.05-22.1 57.75-22.53 57.45-22.95 56.6-22.95L56.6-22.95 55.2-22.9 55.05-23.1 55.35-25Q55.85-25 57.25-24.95 58.65-24.9 60.05-24.9L60.05-24.9Q61.5-24.9 63.15-24.98 64.8-25.05 65.4-25.05L65.4-25.05Q69.45-25.05 71.75-23.38 74.05-21.7 74.05-18.75L74.05-18.75Q74.05-16.45 72.5-14.5 70.95-12.55 68.15-11.3L68.15-11.3 72.4-4.9Q73.6-3.1 74.7-2.35 75.8-1.6 77.35-1.6L77.35-1.6 77.55-1.35 77.3 0.2 73.45 0.6ZM65.8-12.6Q66.75-13 67.47-13.38 68.2-13.75 69.1-14.95 70-16.15 70-18.05L70-18.05Q70-22.9 62.85-22.9L62.85-22.9Q62.45-22.9 62.3-22.73 62.15-22.55 62.15-22L62.15-22Q61.75-15.9 61.75-13L61.75-13 65.8-12.6ZM94.89 0.7Q89.84-13 87.34-19.35L87.34-19.35 87.09-19.35Q86.89-16.95 86.37-10.4 85.84-3.85 85.84-3.2L85.84-3.2Q85.84-2.55 86.14-2.27 86.44-2 87.14-2L87.14-2 88.74-2 88.84-1.85 88.49 0.15Q88.04 0.15 86.77 0.08 85.49 0 84.24 0L84.24 0Q83.24 0 82.09 0.13 80.94 0.25 80.59 0.3L80.59 0.3 80.79-1.75Q82.09-1.9 82.64-2.53 83.19-3.15 83.39-4.7L83.39-4.7Q83.79-8.1 84.47-14.25 85.14-20.4 85.14-21.15L85.14-21.15Q85.14-22.15 84.37-22.63 83.59-23.1 81.69-23.2L81.69-23.2 81.54-23.45 81.89-25.1Q82.44-25.05 83.84-24.98 85.24-24.9 86.54-24.9L86.54-24.9Q87.64-24.9 88.57-24.95 89.49-25 89.79-25.05L89.79-25.05Q91.29-20.4 92.72-16.32 94.14-12.25 95.07-9.83 95.99-7.4 96.24-6.8L96.24-6.8 96.49-6.8Q97.04-8.2 98.97-13.35 100.89-18.5 103.14-24.95L103.14-24.95Q103.44-25 103.92-24.98 104.39-24.95 104.84-24.95L104.84-24.95Q105.39-24.9 106.44-24.9L106.44-24.9Q107.24-24.9 108.77-25 110.29-25.1 110.79-25.15L110.79-25.15 110.89-25 110.64-23.25Q108.89-23.05 108.19-22.58 107.49-22.1 107.49-21.1L107.49-21.1Q107.49-20.1 107.84-14.75 108.19-9.4 108.54-5.65L108.54-5.65Q108.79-3.4 109.19-2.7 109.59-2 110.54-2L110.54-2 111.69-2.05 111.79-1.9 111.44 0.1Q111.04 0.1 109.89 0.05 108.74 0 107.44 0L107.44 0Q106.14 0 104.49 0.15 102.84 0.3 102.74 0.3L102.74 0.3 102.94-1.75Q104.24-1.9 104.79-2.35 105.34-2.8 105.34-3.7L105.34-3.7Q105.34-4.6 104.82-10.85 104.29-17.1 104.09-19.35L104.09-19.35 103.84-19.35Q100.89-11.8 96.34 0.4L96.34 0.4 94.89 0.7ZM128.29 0.35L128.14 0.1 128.29-1.7Q130.39-1.85 131.12-2.15 131.84-2.45 131.84-3.15L131.84-3.15Q131.84-3.95 131.49-4.85L131.49-4.85 130.29-8.7Q129.29-8.75 126.14-8.75L126.14-8.75Q124.69-8.75 121.84-8.45L121.84-8.45 120.44-4.75Q120.09-3.6 120.09-3.35L120.09-3.35Q120.09-2.55 120.64-2.2 121.19-1.85 122.44-1.85L122.44-1.85 124.59-1.85 124.74-1.65 124.44 0.25Q123.94 0.2 122.17 0.1 120.39 0 118.69 0L118.69 0Q117.09 0 115.82 0.05 114.54 0.1 114.09 0.1L114.09 0.1 114.39-1.95Q115.49-2.1 116.14-2.73 116.79-3.35 117.44-4.85L117.44-4.85 125.29-24.7 128.84-25.35 129.19-25.3Q129.19-25.1 131.47-17.4 133.74-9.7 135.54-4.65L135.54-4.65Q136.04-3.2 136.82-2.63 137.59-2.05 139.29-1.9L139.29-1.9 139.39-1.7 139.14 0.1Q138.64 0.1 137.29 0.05 135.94 0 134.59 0L134.59 0Q132.54 0 130.69 0.15 128.84 0.3 128.29 0.35L128.29 0.35ZM122.64-10.8L126.04-10.8Q127.79-10.8 129.69-11L129.69-11 126.64-20.7 126.29-20.7 122.64-10.8ZM142.64 0.4L142.94-1.7Q144.54-1.95 145.11-2.63 145.69-3.3 145.69-5L145.69-5 145.74-20.85Q145.74-22.1 145.44-22.53 145.14-22.95 144.24-22.95L144.24-22.95 142.89-22.9 142.74-23.1 143.04-25Q143.29-25 144.54-24.95 145.79-24.9 147.89-24.9L147.89-24.9Q148.99-24.9 150.61-25.05 152.24-25.2 152.74-25.25L152.74-25.25 152.54-23.15Q151.19-23 150.64-22.68 150.09-22.35 149.99-21.85 149.89-21.35 149.74-19.8L149.74-19.8Q149.24-13.1 149.24-4.95L149.24-4.95Q149.24-3.7 149.46-3.13 149.69-2.55 150.36-2.35 151.04-2.15 152.49-2.15L152.49-2.15Q154.89-2.15 156.01-2.55 157.14-2.95 157.71-4.13 158.29-5.3 158.74-7.85L158.74-7.85 160.94-8.1 161.09-7.8Q160.99-7.15 160.61-4.83 160.24-2.5 159.94 0.05L159.94 0.05 159.69 0.35Q158.54 0.3 154.81 0.15 151.09 0 148.54 0L148.54 0Q146.54 0 144.81 0.18 143.09 0.35 142.64 0.4L142.64 0.4Z" opacity="1" transform="matrix(1,0,0,1,0,0)" fill="#ffffff" class="wordmark-text-0" data-fill-palette-color="quaternary" id="text-0"></path></svg></g></svg></g></svg></g></svg></g><g></g></svg></g><defs></defs></svg><rect width="395.52" height="113.86556363636362" fill="none" stroke="none" visibility="hidden"></rect></g></svg></g></svg>